<svg version="1.1" id="Layer_1" xmlns="http://www.w3.org/2000/svg" xmlns:xlink="http://www.w3.org/1999/xlink" x="0px" y="0px"
	 width="100%" viewBox="0 0 539 327" enable-background="new 0 0 539 327" xml:space="preserve">
<path fill="#960C34" opacity="1.000000" stroke="none" 
	d="
M169.250549,327.755432 
	C160.312439,328.000000 151.624863,328.000000 142.468658,328.000000 
	C139.593628,326.241394 139.795135,323.966827 140.322968,321.347290 
	C141.310898,316.444244 143.665710,311.962097 144.491547,306.638184 
	C144.500885,305.993896 144.504333,305.739563 144.519882,305.110840 
	C144.440887,303.403320 145.337967,302.625702 146.165543,301.798157 
	C183.398682,264.568542 220.621857,227.328964 257.862915,190.161362 
	C247.059982,193.029037 236.153625,195.847092 225.371048,199.123810 
	C211.994492,203.188843 200.609039,210.553482 190.765915,220.310654 
	C167.571335,243.302658 144.488602,266.408234 121.503319,289.608917 
	C108.956436,302.273407 94.049423,310.544617 76.901787,314.950958 
	C67.220398,317.438751 57.640041,320.298584 47.940609,322.712494 
	C43.875446,323.724213 40.438072,326.153503 36.280167,327.787323 
	C25.607519,328.000000 15.213636,327.906219 4.823476,328.061523 
	C1.990898,328.103821 0.400595,327.791016 0.938735,324.389648 
	C1.269735,322.297546 1.000000,320.110382 1.000000,317.482971 
	C5.053826,309.647369 11.639009,304.541229 17.345446,298.666656 
	C27.208040,288.513458 36.629101,278.120819 42.377151,264.856445 
	C44.910294,259.010834 46.470158,252.961441 48.210667,246.904343 
	C50.908615,237.515289 52.723339,227.863678 56.477539,218.414917 
	C56.553791,217.326340 56.680550,216.608170 56.774605,215.519104 
	C57.507683,212.983337 59.326145,211.681961 60.830299,210.176514 
	C95.308395,175.668243 129.774292,141.147720 164.328018,106.715248 
	C166.390442,104.660057 168.044907,101.921402 171.685287,101.473297 
	C173.224197,102.253181 174.740448,102.027870 176.082001,103.300423 
	C178.371933,105.149261 177.692200,107.349487 177.210861,109.104019 
	C172.659363,125.695000 169.469360,142.731613 160.804489,157.975922 
	C157.403137,163.959991 152.801407,168.925888 148.278381,174.480438 
	C147.009262,175.839630 145.982803,176.901520 144.444321,177.935471 
	C143.924637,178.261093 143.720200,178.398849 143.168640,178.663513 
	C138.970413,178.378738 137.262253,180.892120 135.810333,184.201599 
	C135.644012,184.753204 135.559509,184.970154 135.262573,185.467422 
	C134.100586,186.571320 132.583694,186.749817 132.088959,188.559982 
	C131.825012,189.073959 131.690643,189.265900 131.298279,189.697113 
	C129.971359,190.557297 128.553055,190.749298 128.075806,192.568665 
	C127.820877,193.078018 127.690643,193.268326 127.310364,193.696564 
	C126.057549,194.505493 124.794327,194.843353 124.825676,196.724640 
	C124.688576,197.284988 124.596367,197.501053 124.302551,198.006210 
	C123.482841,199.314331 122.634811,200.143402 121.601929,201.291229 
	C118.268570,204.826080 115.083321,207.993607 111.488098,211.261688 
	C99.000687,216.077927 92.208855,226.721832 83.945236,236.149826 
	C83.783737,236.721848 83.695801,236.945297 83.390442,237.457947 
	C82.217201,238.624802 80.657669,238.748322 80.001862,240.494995 
	C79.715904,241.003159 79.569016,241.190781 79.136826,241.594269 
	C76.028816,242.239487 77.043167,245.017258 75.772636,246.808578 
	C57.874321,265.828094 54.892033,280.636932 46.826290,312.926056 
	C48.678982,311.488708 49.954136,310.024933 51.309456,308.666870 
	C86.944420,272.959442 122.714264,237.386780 158.274506,201.604721 
	C158.742722,201.133591 159.170959,200.620911 160.185272,200.361755 
	C161.015457,200.256989 161.488953,200.181458 162.317581,200.025726 
	C181.786224,192.688507 202.890945,191.188675 220.615616,179.893814 
	C226.537155,176.120346 232.051025,171.841248 237.021927,166.892975 
	C263.813690,140.223022 290.655609,113.600594 317.171753,86.658539 
	C329.864868,73.761536 345.058136,65.825531 362.270447,61.274887 
	C371.284485,58.891739 380.284180,56.456688 389.297089,54.073204 
	C393.818054,52.877621 397.454926,50.583809 400.709595,47.305676 
	C413.968231,33.951466 427.306671,20.676275 440.593903,7.350458 
	C443.175659,4.761195 445.925842,2.591198 449.705383,1.213980 
	C463.687561,1.000000 477.375122,1.000000 491.531342,1.000000 
	C493.876434,2.445969 493.586029,3.907184 492.344177,5.711634 
	C490.437439,8.482297 488.150604,10.879169 485.793610,13.237037 
	C461.760590,37.279015 437.875671,61.472507 413.614624,85.281433 
	C403.321411,95.382843 396.148041,107.053711 392.052521,120.710762 
	C389.095459,130.571579 386.538971,140.549500 383.813812,150.675964 
	C385.200714,150.101654 385.839783,149.090866 386.645203,148.286774 
	C420.136749,114.850441 453.777618,81.559525 486.894501,47.755760 
	C493.209320,41.309944 500.553680,38.016438 508.505432,35.299442 
	C516.381653,32.608238 524.579529,30.945206 532.606873,28.719599 
	C534.895996,28.084940 537.476624,26.864523 539.747681,29.748829 
	C540.000000,35.022091 540.000000,40.044186 540.000000,45.533138 
	C536.395142,52.442429 529.895935,55.990612 524.894958,61.040226 
	C503.218781,82.927292 481.188934,104.466423 459.662323,126.497826 
	C446.968323,139.489548 432.212769,148.465485 414.671967,152.982437 
	C405.805664,155.265625 397.061981,158.041916 388.141968,160.077316 
	C382.390686,161.389664 377.854675,164.065826 373.686981,168.248810 
	C336.079224,205.994400 298.399689,243.668777 260.693512,281.316284 
	C258.221436,283.784546 255.882248,286.461639 251.988190,287.504822 
	C251.149902,287.495667 250.674194,287.451294 249.861572,287.257233 
	C247.679840,285.935181 247.552704,284.204956 248.061493,282.296326 
	C253.153717,263.193939 256.481323,243.493088 267.401276,226.386490 
	C269.664734,222.840683 272.274902,219.668610 275.232727,216.712280 
	C302.335144,189.623489 329.189209,162.279388 356.623260,135.532013 
	C371.273926,121.248047 381.548279,104.913406 386.048462,84.946976 
	C387.720184,77.529968 389.951752,70.253006 391.876923,62.986416 
	C385.142242,70.044495 378.128235,76.905128 371.191071,83.840195 
	C339.142792,115.878662 307.149628,147.972397 275.020294,179.929443 
	C271.133636,183.795273 268.451996,188.023178 266.963501,193.395828 
	C263.320587,206.544662 260.770630,220.006210 255.708633,232.760681 
	C251.032745,244.542282 244.320984,254.873795 235.280594,263.811371 
	C216.087250,282.786377 197.102646,301.972015 177.985565,321.024414 
	C175.438721,323.562653 172.943176,326.151306 169.250549,327.755432 
z"/>
<path fill="#C81D4B" opacity="1.000000" stroke="none" 
	d="
M251.793320,286.205963 
	C253.874039,284.325867 255.773224,282.701569 257.535431,280.940186 
	C296.520966,241.973404 335.511597,203.011658 374.423889,163.971863 
	C377.360992,161.025131 380.563080,159.270752 384.603729,158.219254 
	C397.811218,154.782364 411.124054,151.686493 424.044159,147.214935 
	C435.740204,143.167007 445.877106,136.575058 454.609802,127.890587 
	C477.989258,104.640335 501.249939,81.270691 524.625732,58.016720 
	C529.096497,53.569241 533.568787,49.049549 539.662109,46.080349 
	C540.000000,59.687561 540.000000,73.375122 540.000000,87.531342 
	C537.225098,93.343842 532.717102,97.208488 528.595520,101.410912 
	C515.205261,115.063957 501.385986,128.290924 487.972290,142.418823 
	C486.828735,144.027267 485.396301,144.239258 483.613190,144.539383 
	C469.281189,149.567978 454.952179,153.330429 440.705261,157.408157 
	C427.810974,161.098724 417.153137,169.147949 407.720825,178.446991 
	C380.673645,205.112167 353.961639,232.116272 327.071686,258.940887 
	C314.651367,271.330994 300.132446,279.856659 282.903229,283.915436 
	C273.194244,286.202576 263.625275,289.131805 253.921402,291.498474 
	C250.379257,292.362335 247.641220,294.445648 245.120499,296.945923 
	C237.314240,304.688873 229.550049,312.473877 221.790787,320.263733 
	C218.997681,323.067841 216.223969,325.878174 212.259064,327.752502 
	C197.979111,328.000000 183.958206,328.000000 169.468658,328.000000 
	C169.615799,325.378967 171.731323,323.875824 173.472321,322.130066 
	C190.641541,304.913727 207.268814,287.102448 225.187500,270.703064 
	C243.647202,253.808517 255.076508,233.563263 260.152008,209.331497 
	C261.311066,203.797958 263.308136,198.435394 264.383301,192.890167 
	C265.483002,187.218353 268.365692,182.991379 272.408600,178.968704 
	C311.720398,139.853516 350.887665,100.593056 390.130219,61.408199 
	C391.596069,59.944508 392.710632,57.916950 395.411438,57.387257 
	C395.411438,58.183640 395.543365,58.828892 395.392151,59.399040 
	C391.636475,73.558624 388.510956,87.900787 383.530853,101.710320 
	C379.390320,113.191727 372.531616,122.989891 363.986115,131.572800 
	C336.373383,159.306503 308.839447,187.122757 280.906921,214.531921 
	C270.349152,224.891876 263.191223,236.924988 259.181091,250.940155 
	C255.930481,262.300873 253.076157,273.774963 250.001999,285.596832 
	C250.349060,286.677124 250.930176,286.609955 251.793320,286.205963 
z"/>
<path fill="#C71D4B" opacity="1.000000" stroke="none" 
	d="
M161.521637,201.718018 
	C122.175911,241.173645 83.046837,280.339752 43.917763,319.505890 
	C43.456387,319.172943 42.995010,318.839996 42.533638,318.507019 
	C49.581459,293.276825 52.928699,266.542480 72.782822,246.161331 
	C74.168831,243.789459 75.799767,242.064789 77.832939,240.261871 
	C78.087738,240.058136 78.027397,240.025391 78.042633,240.056152 
	C79.129021,238.771805 80.381508,237.632980 81.839371,236.255249 
	C82.087578,236.057968 82.027061,236.025543 82.042480,236.056213 
	C91.095901,227.153763 99.547813,217.621582 109.570473,209.192871 
	C113.128281,206.490051 115.935722,203.523193 118.768448,200.109253 
	C119.917282,198.761261 120.369743,197.297379 121.844315,196.248138 
	C122.087204,196.055267 122.025925,196.027740 122.041878,196.057297 
	C123.129044,194.771896 124.381378,193.633011 125.839340,192.255478 
	C126.087593,192.058258 126.027023,192.025421 126.042542,192.056183 
	C127.128990,190.771759 128.381409,189.633011 129.839386,188.255554 
	C130.087662,188.058380 130.027069,188.025330 130.042618,188.056137 
	C131.128967,186.771576 132.381653,185.633011 133.839325,184.255127 
	C134.087494,184.057785 134.027115,184.025467 134.042404,184.056122 
	C136.424896,181.417923 139.046417,179.000015 141.825684,176.268692 
	C142.087479,176.057953 142.029404,176.024628 142.042145,176.055588 
	C142.941620,174.918457 144.018585,173.986542 145.588913,173.180725 
	C159.640854,159.606216 166.184937,142.526917 170.643829,124.378609 
	C172.149002,118.252296 173.678024,112.131844 175.214386,105.607147 
	C174.614563,102.599121 176.011017,100.097809 175.561493,97.136612 
	C175.573929,94.647438 177.370926,93.699570 178.609924,92.455826 
	C207.178406,63.777786 235.795319,35.148029 264.419067,6.525115 
	C266.526306,4.417964 268.935577,2.879117 271.750214,1.244251 
	C280.687561,1.000000 289.375122,1.000000 298.531342,1.000000 
	C301.458832,2.687031 300.818237,4.841788 300.171356,7.213395 
	C295.975250,22.597937 287.395050,35.403862 276.383728,46.553680 
	C251.451813,71.799156 226.650070,97.195992 201.021912,121.722618 
	C184.821304,137.226898 174.981262,155.499420 170.434586,177.169189 
	C169.116150,183.452988 168.071457,189.946640 164.681274,196.036835 
	C163.549667,198.029190 163.005005,199.925903 161.521637,201.718018 
z"/>
<path fill="#C81D4B" opacity="1.000000" stroke="none" 
	d="
M96.717148,1.300277 
	C111.020897,1.000000 125.041786,1.000000 139.531342,1.000000 
	C142.259598,2.709741 141.463837,4.327848 139.907959,5.999325 
	C136.501724,9.658682 132.851639,13.076550 129.387970,16.677103 
	C120.040924,26.393532 109.808502,35.246719 101.194962,45.679237 
	C93.210449,55.349888 87.809212,66.342209 84.646568,78.412338 
	C82.367645,87.109779 80.049553,95.797264 77.557892,105.209000 
	C79.358101,103.752426 80.480026,102.462563 81.673424,101.270233 
	C112.663490,70.307785 143.656021,39.347775 174.592682,8.331937 
	C177.272705,5.645050 179.960297,3.008548 183.757935,1.240486 
	C198.687561,1.000000 213.375122,1.000000 228.531342,1.000000 
	C231.178070,3.837231 228.601959,5.288661 227.110565,6.810014 
	C214.865479,19.300993 202.428711,31.602087 190.060410,43.970989 
	C178.398788,55.633179 166.347794,66.938477 155.163391,79.037476 
	C140.941956,94.421844 123.649437,103.805489 103.517509,108.573242 
	C95.413788,110.492393 87.451233,112.971558 79.375023,114.986961 
	C75.133499,116.045425 71.826637,118.188263 68.809380,121.211197 
	C49.979568,140.076416 31.109621,158.901611 12.288013,177.775101 
	C10.170588,179.898361 8.056248,182.025436 5.826177,184.032318 
	C4.510841,185.215988 3.163561,186.189880 1.263361,184.254425 
	C1.000000,170.645767 1.000000,157.291550 1.000000,143.468658 
	C4.981774,137.119339 10.900841,133.128281 15.736959,128.067307 
	C23.047312,120.417076 30.370081,112.747032 38.067104,105.458076 
	C45.602753,98.321930 53.078144,91.106651 60.409332,83.773842 
	C71.441681,72.739037 78.205017,59.229858 81.933105,44.020786 
	C84.722115,32.642780 87.656425,21.276794 91.109436,10.077023 
	C92.072273,6.954107 95.387009,4.906307 96.717148,1.300277 
z"/>
<path fill="#950C34" opacity="1.000000" stroke="none" 
	d="
M1.000000,184.468658 
	C3.665731,183.472809 5.168102,181.344406 6.911550,179.604050 
	C27.426804,159.125183 47.941967,138.646042 68.379913,118.090157 
	C71.176643,115.277298 74.272568,113.604134 78.135361,112.529724 
	C92.089317,108.648529 106.352615,105.820580 119.929298,100.633324 
	C130.821716,96.471664 140.361511,90.178436 148.604782,81.944122 
	C174.181091,56.395576 199.739929,30.829521 225.294464,5.259178 
	C226.469070,4.083859 227.536011,2.800934 228.826538,1.284063 
	C243.020889,1.000000 257.041779,1.000000 271.531342,1.000000 
	C271.491119,3.869410 269.176331,5.429943 267.330261,7.280549 
	C237.641541,37.042244 207.924957,66.776154 177.979401,96.766571 
	C177.325134,97.588821 177.027435,98.236671 176.337097,99.030769 
	C175.824158,99.308739 175.593933,99.371758 175.008438,99.461891 
	C161.304382,104.791939 147.037186,107.030357 133.531952,111.809250 
	C121.213821,116.168083 110.717484,123.411751 101.533508,132.546829 
	C77.341469,156.610077 53.283268,180.807877 29.109568,204.889587 
	C22.562796,211.411453 14.726939,216.141785 6.406769,220.089050 
	C4.627883,220.932983 2.953879,221.420029 1.262232,219.260208 
	C1.000000,207.645767 1.000000,196.291550 1.000000,184.468658 
z"/>
<path fill="#C71D4B" opacity="1.000000" stroke="none" 
	d="
M449.531372,1.000008 
	C448.091949,3.085603 446.257385,5.244420 444.263916,7.244883 
	C431.324249,20.229826 418.076752,32.922638 405.506042,46.254208 
	C399.497192,52.626759 392.680969,56.232616 384.311584,58.295517 
	C372.359314,61.241528 360.246246,63.783199 348.781372,68.477097 
	C338.023865,72.881409 328.410980,78.987106 320.157471,87.273872 
	C293.461792,114.077072 266.622589,140.737457 239.955322,167.568787 
	C227.553665,180.046738 213.083405,188.707031 195.988770,193.052048 
	C185.170639,195.801712 174.435791,198.878998 163.294113,201.915985 
	C161.047867,199.676010 163.800323,198.530853 164.441254,196.468384 
	C166.585510,193.233200 169.117065,190.816147 171.588242,188.345490 
	C208.326569,151.614868 245.080948,114.900330 281.834991,78.185440 
	C284.072449,75.950363 286.369232,73.768738 288.548157,70.999496 
	C305.205750,65.152168 322.314148,62.035599 338.509064,55.928360 
	C349.103973,51.932938 358.246979,45.516907 366.292633,37.637508 
	C376.054626,28.077221 385.667145,18.362371 395.285309,8.655933 
	C398.053406,5.862396 400.887268,3.214463 404.736267,1.249308 
	C419.687561,1.000000 434.375122,1.000000 449.531372,1.000008 
z"/>
<path fill="#950C34" opacity="1.000000" stroke="none" 
	d="
M212.468658,328.000000 
	C212.464890,325.918610 214.004501,324.587006 215.409836,323.179138 
	C225.057236,313.514435 234.759186,303.903687 244.349213,294.182495 
	C247.257584,291.234344 250.563171,289.474579 254.619583,288.488037 
	C265.616669,285.813538 276.550415,282.866211 287.462585,279.857758 
	C301.751678,275.918335 314.055511,268.404968 324.507080,258.031982 
	C351.220184,231.519775 377.788055,204.861053 404.381226,178.228195 
	C417.239746,165.350494 431.966492,155.953842 450.025665,151.940170 
	C460.899628,149.523438 471.546722,146.085983 482.673279,143.007904 
	C484.178864,144.044617 483.366486,144.737457 482.696442,145.802383 
	C480.478943,149.326706 477.713470,152.339371 474.792053,155.256683 
	C437.125580,192.870453 399.520660,230.545837 361.855988,268.161438 
	C359.737549,270.277100 357.602905,272.376282 355.277069,274.767517 
	C354.216858,275.059998 353.493103,275.210388 352.406464,275.446899 
	C346.051849,276.200165 340.769470,279.203888 334.954071,280.611267 
	C320.109741,284.203888 305.227112,287.797791 292.294250,296.698517 
	C282.903961,303.161133 274.888489,311.079346 266.922150,319.104431 
	C263.769165,322.280701 260.791504,325.691101 256.265564,327.752502 
	C241.645767,328.000000 227.291550,328.000000 212.468658,328.000000 
z"/>
<path fill="#950C34" opacity="1.000000" stroke="none" 
	d="
M485.941589,140.271515 
	C502.061066,124.382645 517.861145,108.683083 533.682373,93.004860 
	C535.442749,91.260414 536.995483,89.249130 539.676147,88.099747 
	C540.000000,102.354225 540.000000,116.708458 540.000000,131.531342 
	C539.526794,132.514481 539.300964,133.170441 538.824219,134.073151 
	C538.245605,136.203766 537.078613,137.577042 535.637024,139.195831 
	C532.647339,142.427734 529.803589,145.299759 526.512817,148.246536 
	C523.069702,149.626846 519.883423,150.740524 519.488403,155.205292 
	C518.604431,156.245026 517.899536,156.945099 516.898438,157.867096 
	C514.977905,160.428650 511.887024,158.824341 509.955963,160.654312 
	C506.971100,163.482819 503.996490,166.228210 503.664154,171.043411 
	C490.524963,184.019440 482.227020,199.241837 477.890045,216.797318 
	C475.520416,226.389145 473.057770,235.983841 469.450684,245.587799 
	C468.124237,247.561905 468.249451,249.759171 466.939514,251.735321 
	C443.121582,276.215973 419.024536,299.930603 395.144226,323.861359 
	C393.489044,325.520050 391.263611,326.120026 389.249512,327.755798 
	C376.979095,328.000000 364.958221,328.000000 352.468658,328.000000 
	C349.372406,326.018463 350.753601,323.859131 351.813049,321.812805 
	C356.210999,313.318085 361.986206,305.874756 368.772064,299.126129 
	C395.563324,272.481781 422.260834,245.743088 448.944061,218.990433 
	C459.982056,207.923691 467.602966,194.854721 471.902313,179.804138 
	C474.325775,171.320511 476.623260,162.808426 478.743927,154.245346 
	C480.005981,149.149292 482.682739,144.734970 485.941589,140.271515 
z"/>
<path fill="#950C34" opacity="1.000000" stroke="none" 
	d="
M290.201660,72.600098 
	C288.764496,74.263351 287.634033,75.712120 286.344788,77.002220 
	C247.620071,115.751938 208.881165,154.487473 170.134857,193.215607 
	C168.959824,194.390106 167.682068,195.461853 166.174683,196.768494 
	C164.906586,197.818802 163.979675,197.821152 163.026276,196.359039 
	C165.827133,184.846329 168.529114,173.666992 171.691818,162.619583 
	C175.709427,148.586014 182.963272,136.368271 193.323669,126.015923 
	C220.078827,99.281532 246.833450,72.546486 273.532379,45.756001 
	C285.880859,33.365166 295.065735,19.097570 298.942963,1.382645 
	C304.688049,1.000000 310.376068,1.000000 316.532043,1.000000 
	C319.998444,3.599814 317.818817,5.910069 316.361359,7.949513 
	C309.999298,16.852018 305.386780,26.519896 302.628693,37.126156 
	C300.661957,44.689201 298.778381,52.275108 296.757812,59.825584 
	C295.885132,63.086784 294.021423,65.940796 293.330933,69.622406 
	C292.598938,71.131432 290.893463,70.981438 290.201660,72.600098 
z"/>
<path fill="#C81D4B" opacity="1.000000" stroke="none" 
	d="
M36.468658,328.000000 
	C38.848633,323.577240 42.893299,321.312897 48.005753,319.850983 
	C64.459999,315.145813 81.590034,312.586090 97.027603,304.555847 
	C104.935539,300.442352 112.073341,295.365021 118.367073,289.068115 
	C141.096878,266.326874 163.958130,243.715256 186.523697,220.812271 
	C199.246994,207.898712 213.994202,198.842743 231.635651,194.460312 
	C241.010147,192.131546 250.292816,189.434265 259.627930,186.944672 
	C260.853271,186.617905 262.116150,185.811264 263.454926,186.764587 
	C263.757843,188.423569 262.392548,189.122421 261.513458,190.002182 
	C223.832458,227.713501 186.130035,265.403412 148.423492,303.089203 
	C147.836121,303.676208 147.165054,304.179504 146.268524,304.932556 
	C140.800888,308.742188 134.846603,310.360321 128.794846,311.797791 
	C113.200821,315.501892 98.114029,320.691711 83.295113,327.745422 
	C67.645775,328.000000 52.291546,328.000000 36.468658,328.000000 
z"/>
<path fill="#C71D4B" opacity="1.000000" stroke="none" 
	d="
M485.937317,140.169861 
	C483.761749,143.941635 482.993530,148.420349 481.818878,152.741730 
	C478.501831,164.944687 475.969391,177.381531 471.412201,189.216446 
	C466.932159,200.851120 460.255432,211.110596 451.405182,219.952530 
	C423.846130,247.485794 396.285339,275.017578 368.813538,302.637787 
	C361.722168,309.767456 355.919281,317.869202 352.078857,327.649109 
	C347.643097,328.000000 343.286194,328.000000 338.464661,328.000000 
	C335.775818,326.319489 336.443329,324.199890 337.220337,322.164764 
	C342.067444,309.469330 345.318878,296.310333 348.616974,283.164429 
	C349.495270,279.663666 351.483643,276.725464 353.546173,273.365479 
	C395.187775,231.571945 436.598511,190.118240 477.994385,148.649734 
	C479.635468,147.005753 481.134796,145.220322 482.875488,143.204712 
	C483.495972,141.627609 484.279633,140.675385 485.937317,140.169861 
z"/>
<path fill="#C81D4B" opacity="1.000000" stroke="none" 
	d="
M540.000000,29.531342 
	C526.085388,32.653061 512.536804,36.699692 499.011322,40.822090 
	C496.358612,41.630592 494.685608,43.867207 492.811554,45.740540 
	C457.131775,81.407005 421.470551,117.092049 385.767639,152.735382 
	C384.311829,154.188736 383.226379,156.275848 380.491882,156.606277 
	C379.872498,151.861877 381.932098,147.739777 383.085724,143.551331 
	C387.318848,128.181931 390.229462,112.321266 399.126617,98.598137 
	C401.581696,94.811363 404.253357,91.248268 407.460266,88.047592 
	C432.797424,62.759556 458.094940,37.431820 483.399292,12.110923 
	C486.577026,8.931108 489.777039,5.763129 491.907104,1.330984 
	C497.022095,1.000000 502.044189,1.000000 507.533142,1.000000 
	C510.215576,2.576481 510.233307,4.588001 509.576141,7.041066 
	C507.435242,15.033053 504.999634,22.951412 503.095215,31.823315 
	C511.361969,23.712368 518.996643,15.972307 526.645020,8.249188 
	C529.302673,5.565589 532.066772,3.092595 535.758179,1.240287 
	C539.260437,0.317025 540.259033,1.382490 540.108765,4.897003 
	C539.764893,12.939075 540.000000,21.005907 540.000000,29.531342 
z"/>
<path fill="#C81D4B" opacity="1.000000" stroke="none" 
	d="
M1.000000,219.464645 
	C11.751369,216.074539 20.527979,209.756516 28.257483,202.137161 
	C51.364506,179.359528 74.368324,156.472275 97.106750,133.327515 
	C110.401840,119.794838 125.741936,110.215469 144.248215,105.738907 
	C154.269180,103.314888 164.215500,100.582260 174.596786,97.964622 
	C175.165329,98.129555 175.332596,98.318703 175.674225,98.831421 
	C176.000244,102.041107 173.621353,102.566452 171.438019,103.800171 
	C169.876236,105.129364 168.543320,106.141052 167.370575,107.313034 
	C132.375137,142.286026 97.394081,177.273407 62.420609,212.268372 
	C61.363541,213.326065 60.412117,214.489334 59.221222,215.882568 
	C53.836887,219.603195 48.016621,221.535736 42.072201,223.144012 
	C29.929308,226.429291 17.571310,229.013184 6.028462,234.242020 
	C4.384912,234.986542 2.859728,235.234360 1.295518,233.293396 
	C1.000000,228.643097 1.000000,224.286194 1.000000,219.464645 
z"/>
<path fill="#C81D4B" opacity="1.000000" stroke="none" 
	d="
M389.468658,328.000000 
	C389.494812,325.328888 391.619385,323.832428 393.353638,322.095093 
	C415.170593,300.239624 437.015808,278.412415 458.840485,256.564667 
	C460.480560,254.922836 462.019043,253.179535 463.792236,251.206528 
	C466.541199,245.725449 472.036621,245.141769 476.565186,243.374252 
	C483.982666,240.479187 491.859100,238.937180 499.569275,236.947464 
	C511.930511,233.757492 523.454712,228.908615 533.661682,221.120651 
	C535.280823,219.885223 536.872498,218.006378 539.659058,219.795898 
	C540.000000,226.354401 540.000000,232.708786 540.000000,239.531586 
	C538.350525,242.308517 536.035828,243.420502 533.340454,244.207230 
	C518.803467,248.450363 506.526001,256.479797 495.900116,267.115997 
	C477.927216,285.106323 459.940613,303.082855 441.951843,321.057281 
	C439.419006,323.588074 436.932678,326.163177 433.250977,327.755371 
	C418.645782,328.000000 404.291534,328.000000 389.468658,328.000000 
z"/>
<path fill="#960C34" opacity="1.000000" stroke="none" 
	d="
M183.531342,1.000000 
	C183.528244,3.279029 181.799011,4.671526 180.281586,6.189877 
	C146.287277,40.204990 112.287575,74.214714 78.261276,108.197815 
	C77.149040,109.308640 76.290871,110.947166 74.206375,110.907822 
	C74.066734,110.443153 73.721924,109.938324 73.831268,109.567337 
	C79.036461,91.905182 81.419861,73.357277 90.485870,56.903954 
	C94.370628,49.853741 99.076492,43.446983 104.735870,37.749325 
	C115.407021,27.005968 126.143364,16.327345 136.809204,5.578754 
	C137.961639,4.417386 138.828003,2.972179 139.913544,1.329319 
	C154.354233,1.000000 168.708450,1.000000 183.531342,1.000000 
z"/>
<path fill="#960C34" opacity="1.000000" stroke="none" 
	d="
M433.468658,328.000000 
	C433.447906,325.711029 435.180420,324.320526 436.696411,322.803436 
	C456.564026,302.921295 476.344421,282.950439 496.359894,263.218079 
	C508.347504,251.400040 522.597961,243.469223 539.608398,240.038330 
	C540.000000,248.020905 540.000000,256.041809 540.000000,264.531372 
	C537.186096,270.304382 532.745361,274.218323 528.599792,278.393402 
	C514.551880,292.541504 500.391266,306.576813 486.323303,320.704620 
	C483.667694,323.371490 480.996246,325.961243 477.249756,327.755737 
	C462.645782,328.000000 448.291534,328.000000 433.468658,328.000000 
z"/>
<path fill="#950C34" opacity="1.000000" stroke="none" 
	d="
M1.291439,138.268661 
	C1.000000,124.312439 1.000000,110.624878 1.000000,96.468658 
	C3.672626,90.818298 7.958098,86.989670 11.994029,82.963150 
	C33.764023,61.243893 55.460392,39.450932 77.262566,17.764133 
	C79.326935,15.710687 80.997047,13.004158 84.619774,12.517080 
	C86.049683,13.079260 87.136246,13.410811 88.581795,14.057053 
	C89.283760,14.878276 89.806946,15.471584 89.570320,16.105034 
	C85.017799,28.292133 83.885040,41.441673 78.996719,53.934433 
	C78.634987,55.275848 77.964737,56.102749 77.734215,57.445122 
	C72.152458,70.349815 63.945297,80.704811 53.992615,90.192894 
	C37.785248,105.643692 22.354692,121.912354 6.411344,137.652161 
	C5.817732,138.238205 5.163903,138.520172 4.184300,139.063843 
	C2.955075,139.303009 2.229288,139.067154 1.291439,138.268661 
z"/>
<path fill="#C71D4B" opacity="1.000000" stroke="none" 
	d="
M3.723000,138.189606 
	C16.248688,125.835014 28.657127,113.787354 40.837757,101.513603 
	C49.377640,92.908432 58.653782,84.965546 65.656364,74.924377 
	C69.358734,69.615463 73.222626,64.384499 75.075172,57.661854 
	C75.482529,56.321720 75.838875,55.335056 76.698059,54.259514 
	C81.355949,41.503666 83.761726,28.405783 87.758621,15.370955 
	C86.821030,13.498860 85.610611,14.008142 84.092239,14.776696 
	C73.380836,25.215771 62.932968,35.481106 52.556320,45.817928 
	C37.340359,60.975498 22.181070,76.189941 6.980395,91.362877 
	C5.341033,92.999252 3.875549,94.866936 1.326877,95.908234 
	C1.000000,81.312439 1.000000,66.624878 1.000000,51.468658 
	C14.583050,31.619974 33.505173,20.287130 56.098980,14.550197 
	C62.533688,12.916320 68.894447,11.004716 75.349121,9.460735 
	C82.159721,7.831614 88.630157,5.454494 94.729240,1.250210 
	C95.444443,1.000000 95.888893,1.000000 96.666672,1.000000 
	C97.346275,6.862487 93.067131,11.076205 91.254852,16.170511 
	C88.164879,24.856377 86.995972,33.904522 84.570099,42.683983 
	C80.649834,56.871773 74.830467,69.989235 65.454872,81.226738 
	C60.488117,87.179848 54.112465,91.938263 48.563438,97.428635 
	C35.208351,110.642563 21.953829,123.958298 8.689507,137.263626 
	C6.559316,139.400391 4.225519,141.230682 1.315013,142.873138 
	C1.000000,142.250000 1.000000,141.500000 1.000000,140.375000 
	C1.665047,139.198410 2.600813,138.821243 3.723000,138.189606 
z"/>
<path fill="#C71D4B" opacity="1.000000" stroke="none" 
	d="
M537.613647,133.186310 
	C538.374084,132.705429 538.908203,132.451324 539.721191,132.098602 
	C540.000000,146.687561 540.000000,161.375122 540.000000,176.531342 
	C537.190186,182.295166 532.814758,186.269180 528.646240,190.410660 
	C511.868713,207.079391 495.233643,223.890747 478.444000,240.547241 
	C475.543335,243.424896 472.502197,246.119202 467.939667,246.384720 
	C472.334686,228.274078 475.683807,210.034912 483.835663,193.254837 
	C488.033386,184.614105 494.059570,177.334076 500.773315,170.130615 
	C504.769379,164.726944 509.286987,160.309967 514.588501,156.190704 
	C515.427429,155.414047 516.013550,154.868591 516.779541,154.081299 
	C518.947449,150.888885 521.194580,148.196625 524.597656,146.187988 
	C527.792358,143.819855 530.280579,141.203598 532.769775,138.116058 
	C534.163269,136.090530 535.206543,134.182510 537.613647,133.186310 
z"/>
<path fill="#960C34" opacity="1.000000" stroke="none" 
	d="
M290.312073,72.751846 
	C290.386108,72.065643 290.803223,71.242752 291.440125,70.241684 
	C311.065155,46.804996 333.967590,26.953251 354.861908,5.145862 
	C356.485504,3.451328 358.736084,2.880828 360.749756,1.244403 
	C375.354218,1.000000 389.708466,1.000000 404.531342,1.000000 
	C404.424988,3.435708 402.505432,4.885160 400.876221,6.519642 
	C390.178101,17.252420 379.411377,27.917088 368.748932,38.685074 
	C357.470337,50.075272 344.106903,57.826199 328.677734,62.082062 
	C315.999664,65.579079 303.329041,69.103104 290.312073,72.751846 
z"/>
<path fill="#C71D4B" opacity="1.000000" stroke="none" 
	d="
M58.020905,217.488724 
	C53.536911,235.529282 50.661476,253.893906 42.376926,270.674957 
	C38.640186,278.244049 33.686886,284.882385 27.962399,290.948242 
	C19.520819,299.893250 11.244201,309.024323 1.324255,316.900940 
	C1.000000,302.312439 1.000000,287.624878 1.000000,272.468658 
	C3.798029,266.678070 8.196798,262.706268 12.382911,258.565155 
	C24.230354,246.845078 35.894863,234.941879 47.768120,223.247849 
	C50.606903,220.451920 53.716743,218.098221 58.020905,217.488724 
z"/>
<path fill="#C81D4B" opacity="1.000000" stroke="none" 
	d="
M256.468689,328.000000 
	C256.354919,327.256531 256.541046,326.345062 257.089386,325.794098 
	C270.534576,312.284454 282.893677,297.553833 300.525208,288.883728 
	C308.370911,285.025726 316.627960,282.701538 324.987335,280.527557 
	C333.828125,278.228394 342.681335,275.977081 351.966492,273.650635 
	C352.935730,277.090424 350.376465,279.303284 348.458099,281.286621 
	C334.410400,295.810028 320.061462,310.039764 305.698700,324.253601 
	C304.190979,325.745667 302.114624,326.225250 300.256165,327.753662 
	C285.645782,328.000000 271.291534,328.000000 256.468689,328.000000 
z"/>
<path fill="#C81D4B" opacity="1.000000" stroke="none" 
	d="
M477.468658,328.000000 
	C477.449158,325.915680 478.984467,324.584045 480.388000,323.179169 
	C498.600891,304.949860 516.813293,286.720032 535.063232,268.527893 
	C536.337769,267.257446 537.908020,266.283661 539.670410,265.085999 
	C540.000000,279.354218 540.000000,293.708466 540.000000,308.531342 
	C535.238403,316.563110 529.311890,322.962921 521.261597,327.751556 
	C506.645782,328.000000 492.291534,328.000000 477.468658,328.000000 
z"/>
<path fill="#960C34" opacity="1.000000" stroke="none" 
	d="
M467.402802,246.228607 
	C470.443878,245.427597 472.127655,243.280655 473.995361,241.414825 
	C493.986145,221.444336 513.956238,201.453140 533.949646,181.485275 
	C535.582336,179.854675 537.023193,177.953949 539.664856,177.072495 
	C540.000000,191.020889 540.000000,205.041794 540.000000,219.531342 
	C536.438049,222.421326 532.881226,224.850220 529.313110,227.262558 
	C517.645508,235.150925 504.200928,238.396301 490.877716,241.954559 
	C484.619507,243.625946 478.370392,245.334503 472.089081,246.914612 
	C469.300110,247.616226 466.715302,248.612091 464.268341,250.743134 
	C464.271149,248.883804 465.044647,247.167084 467.402802,246.228607 
z"/>
<path fill="#C71D4B" opacity="1.000000" stroke="none" 
	d="
M360.531342,1.000000 
	C360.475739,3.051764 358.957336,4.398394 357.548584,5.808217 
	C337.289429,26.082325 317.024048,46.350231 296.755676,66.615150 
	C295.460968,67.909622 294.197174,69.258743 292.020905,69.960167 
	C295.056274,57.007938 298.288818,43.906731 301.907715,30.913130 
	C304.250031,22.503201 308.445007,14.903944 313.428802,7.736609 
	C314.747986,5.839427 315.746979,3.719609 316.946503,1.351007 
	C331.354218,1.000000 345.708466,1.000000 360.531342,1.000000 
z"/>
<path fill="#960C34" opacity="1.000000" stroke="none" 
	d="
M94.531342,1.000000 
	C93.349716,5.599113 90.003654,8.211700 85.361618,9.448293 
	C74.278915,12.400612 63.229347,15.477762 52.140606,18.406832 
	C35.946758,22.684408 22.450279,31.436977 10.588159,43.030411 
	C7.763181,45.791405 5.469194,49.198975 1.339027,50.938622 
	C1.000000,41.312439 1.000000,31.624876 1.000000,21.468657 
	C2.524866,19.247789 4.025122,17.509535 6.497744,17.012188 
	C21.577852,13.978971 35.575394,7.937284 49.714233,1.250448 
	C64.687561,1.000000 79.375122,1.000000 94.531342,1.000000 
z"/>
<path fill="#960C34" opacity="1.000000" stroke="none" 
	d="
M58.406731,217.530350 
	C55.715199,218.669281 53.962563,220.701248 52.090801,222.572205 
	C37.081596,237.574890 22.085142,252.590332 7.062484,267.579529 
	C5.435007,269.203369 4.006873,271.114838 1.338370,271.936523 
	C1.000000,259.312439 1.000000,246.624878 1.000000,233.468658 
	C10.371929,230.238052 19.251766,226.040924 28.842331,223.854004 
	C38.712402,221.603363 48.455643,218.796524 58.642693,216.197418 
	C58.856110,216.555893 58.681217,216.950027 58.406731,217.530350 
z"/>
<path fill="#960C34" opacity="1.000000" stroke="none" 
	d="
M300.468658,328.000000 
	C300.667969,325.615234 302.559357,324.150604 304.192169,322.514435 
	C318.540131,308.137024 332.914734,293.786224 347.258453,279.404602 
	C348.899780,277.758942 350.400208,275.972656 352.184875,273.923950 
	C352.743408,273.447754 353.082977,273.299164 353.601074,273.089417 
	C349.837280,289.412659 346.012451,305.829926 340.156860,321.678772 
	C339.470062,323.537659 338.803101,325.403839 338.063477,327.633301 
	C325.645782,328.000000 313.291534,328.000000 300.468658,328.000000 
z"/>
<path fill="#960C34" opacity="1.000000" stroke="none" 
	d="
M83.468658,328.000000 
	C85.953529,323.360321 90.925934,321.501282 95.564247,319.548431 
	C111.532097,312.825562 128.443115,309.203186 145.603317,305.131348 
	C146.003998,305.143280 146.009064,305.418762 146.011505,305.556519 
	C141.382050,315.434021 134.067764,322.549255 124.305687,327.784302 
	C110.645775,328.000000 97.291542,328.000000 83.468658,328.000000 
z"/>
<path fill="#C71D4B" opacity="1.000000" stroke="none" 
	d="
M49.531342,1.000000 
	C48.118988,4.660504 44.386887,5.985284 41.142120,7.833771 
	C28.901951,14.806780 15.156131,17.320316 1.386644,20.948372 
	C1.000000,16.643101 1.000000,12.286201 1.000000,7.464651 
	C2.598034,4.933554 3.784277,2.457005 6.743425,1.245285 
	C21.020895,1.000000 35.041790,1.000000 49.531342,1.000000 
z"/>
<path fill="#960C34" opacity="1.000000" stroke="none" 
	d="
M535.531372,1.000000 
	C535.726685,2.559320 534.748230,3.693638 533.685242,4.758128 
	C523.233154,15.225239 512.778564,25.689924 502.303040,36.133537 
	C501.636688,36.797855 501.028381,37.765549 498.987762,37.154278 
	C501.977417,25.395069 504.976410,13.599155 507.987701,1.401621 
	C517.020874,1.000000 526.041809,1.000000 535.531372,1.000000 
z"/>
<path fill="#C71D4B" opacity="1.000000" stroke="none" 
	d="
M124.467941,328.000000 
	C130.720444,320.287720 138.236664,313.359253 145.754486,305.935547 
	C146.798325,310.429443 144.462646,314.607178 143.587738,319.042816 
	C143.053024,321.753784 141.893280,324.338928 141.975327,327.586548 
	C136.311951,328.000000 130.623917,328.000000 124.467941,328.000000 
z"/>
<path fill="#960C34" opacity="1.000000" stroke="none" 
	d="
M521.469360,328.000000 
	C525.908508,320.552002 532.505920,314.751160 539.673462,309.093994 
	C540.000000,314.600372 539.898438,320.203583 540.055847,325.799530 
	C540.109924,327.723206 539.550720,328.090240 537.750427,328.046051 
	C532.482727,327.916656 527.209717,328.000000 521.469360,328.000000 
z"/>
<path fill="#960C34" opacity="1.000000" stroke="none" 
	d="
M6.500528,1.000000 
	C6.257299,3.894295 4.285423,5.670683 1.334684,6.930603 
	C0.750726,3.402751 0.115899,-0.515859 6.500528,1.000000 
z"/>
<path fill="#960C34" opacity="1.000000" stroke="none" 
	d="
M3.570842,137.983475 
	C3.155677,138.602158 2.373801,139.225082 1.295962,139.923996 
	C1.000000,139.555557 1.000000,139.111099 1.000000,138.333328 
	C1.734710,137.995895 2.469421,137.991806 3.570842,137.983475 
z"/>
<path fill="#960C34" opacity="1.000000" stroke="none" 
	d="
M109.498001,209.030396 
	C101.176346,218.315033 92.414772,227.565002 82.372864,235.963516 
	C82.535934,234.057129 83.887779,232.611694 85.301979,231.199585 
	C91.618813,224.892090 97.929321,218.578262 104.240784,212.265366 
	C105.652695,210.853165 107.092903,209.487930 109.498001,209.030396 
z"/>
<path fill="#960C34" opacity="1.000000" stroke="none" 
	d="
M171.487411,104.065865 
	C172.330460,102.602829 173.526428,101.162704 174.901489,99.465370 
	C175.258118,98.810570 175.466446,98.429665 175.872192,97.785446 
	C176.469147,97.377190 176.895096,97.246597 177.532578,97.066383 
	C177.672577,99.727409 176.860626,102.229050 175.417419,104.905136 
	C174.101852,104.833321 172.971100,104.461052 171.487411,104.065865 
z"/>
<path fill="#960C34" opacity="1.000000" stroke="none" 
	d="
M141.759033,176.161194 
	C140.457214,179.447662 137.781906,181.843445 134.372040,183.963165 
	C135.381058,180.410217 137.997223,177.952194 141.759033,176.161194 
z"/>
<path fill="#960C34" opacity="1.000000" stroke="none" 
	d="
M162.752930,196.271027 
	C163.711502,196.245728 164.502518,196.524399 165.595337,196.879272 
	C164.966278,198.430435 164.035431,199.905411 163.014618,201.701508 
	C162.563049,202.018112 162.201462,202.013611 161.572433,202.008331 
	C161.239700,200.080719 161.726868,198.284103 162.752930,196.271027 
z"/>
<path fill="#960C34" opacity="1.000000" stroke="none" 
	d="
M77.758118,240.162872 
	C77.206818,242.420837 75.395668,244.004578 73.238907,245.703018 
	C73.384460,243.158890 74.766891,241.205017 77.758118,240.162872 
z"/>
<path fill="#960C34" opacity="1.000000" stroke="none" 
	d="
M125.767136,192.160797 
	C125.471443,193.793549 124.320236,195.046219 122.363495,195.967407 
	C122.539017,194.237640 123.558929,192.865906 125.767136,192.160797 
z"/>
<path fill="#960C34" opacity="1.000000" stroke="none" 
	d="
M81.767105,236.160522 
	C81.471756,237.793579 80.322029,239.047745 78.363647,239.967667 
	C78.539009,238.237640 79.558998,236.865891 81.767105,236.160522 
z"/>
<path fill="#960C34" opacity="1.000000" stroke="none" 
	d="
M129.767181,188.160889 
	C129.472717,189.794662 128.322525,191.048279 126.363892,191.967804 
	C126.539078,190.237640 127.558884,188.865860 129.767181,188.160889 
z"/>
<path fill="#960C34" opacity="1.000000" stroke="none" 
	d="
M133.767029,184.160400 
	C133.470169,185.791962 132.322723,187.048187 130.363968,187.967804 
	C130.539047,186.237579 131.559052,184.865921 133.767029,184.160400 
z"/>
<path fill="#960C34" opacity="1.000000" stroke="none" 
	d="
M121.778755,196.173004 
	C121.612862,197.500549 120.696167,198.610535 119.219727,199.662323 
	C119.245392,198.260025 119.844849,196.911407 121.778755,196.173004 
z"/>
<path fill="#960C34" opacity="1.000000" stroke="none" 
	d="
M145.482635,173.028656 
	C145.040680,174.241989 144.014908,175.239792 142.350403,175.976440 
	C142.529709,174.504974 143.515594,173.456818 145.482635,173.028656 
z"/>
<path fill="#960C34" opacity="1.000000" stroke="none" 
	d="
M251.691895,286.010223 
	C251.347137,286.350677 250.917328,288.383240 249.909042,286.172546 
	C250.420319,285.998718 250.882736,286.002563 251.691895,286.010223 
z"/>
<path fill="#C71D4B" opacity="1.000000" stroke="none" 
	d="
M175.782562,97.617500 
	C175.850525,97.898163 175.657867,98.288536 175.272919,98.943542 
	C175.066223,98.997078 175.051849,98.786003 175.017776,98.257660 
	C175.172699,97.869339 175.347321,97.798279 175.782562,97.617500 
z"/>
<path fill="#960C34" opacity="1.000000" stroke="none" 
	d="
M514.506165,156.030853 
	C510.854950,160.923630 506.205719,165.235397 501.236420,169.676697 
	C503.526733,163.502029 508.325836,159.299606 514.506165,156.030853 
z"/>
<path fill="#960C34" opacity="1.000000" stroke="none" 
	d="
M524.502319,146.030762 
	C522.799194,148.864563 520.220703,151.245392 517.234070,153.667938 
	C517.861755,149.863068 520.338501,147.353394 524.502319,146.030762 
z"/>
<path fill="#960C34" opacity="1.000000" stroke="none" 
	d="
M537.506226,133.032379 
	C536.707031,134.776855 535.205627,136.242020 533.226501,137.671844 
	C533.348267,135.356003 534.578247,133.623199 537.506226,133.032379 
z"/>
<path fill="#960C34" opacity="1.000000" stroke="none" 
	d="
M84.203598,14.934433 
	C84.446899,14.162304 85.041023,13.346681 85.763374,12.667400 
	C86.429688,12.040818 87.154411,10.807538 88.173508,11.651590 
	C89.021622,12.354026 88.255424,13.502389 87.925117,14.721823 
	C86.747574,14.984599 85.678963,14.967498 84.203598,14.934433 
z"/>
<path fill="#960C34" opacity="1.000000" stroke="none" 
	d="
M76.657288,54.219051 
	C76.452354,54.958069 75.996552,55.890244 75.321342,57.059410 
	C75.210747,56.187550 75.500069,55.160343 76.657288,54.219051 
z"/>
</svg>